<?xml version="1.0" standalone="no"?>
<!DOCTYPE svg PUBLIC "-//W3C//DTD SVG 20010904//EN"
 "http://www.w3.org/TR/2001/REC-SVG-20010904/DTD/svg10.dtd">
<svg version="1.0" xmlns="http://www.w3.org/2000/svg"
 width="988.000000pt" height="988.000000pt" viewBox="0 0 988.000000 988.000000"
 preserveAspectRatio="xMidYMid meet">
<metadata>
Created by potrace 1.14, written by Peter Selinger 2001-2017
</metadata>
<g transform="translate(0.000000,988.000000) scale(0.100000,-0.100000)"
fill="#000000" stroke="none">
<path d="M4933 9838 c-6 -18 -32 -91 -57 -163 -47 -130 -93 -259 -161 -455
-20 -58 -38 -107 -41 -109 -2 -2 -36 -5 -76 -7 -87 -3 -647 -17 -700 -17 -21
-1 -38 -3 -38 -7 0 -3 103 -84 229 -180 126 -96 228 -177 225 -181 -2 -4 -19
-4 -37 1 -17 5 -52 11 -77 14 -116 14 -345 66 -532 120 -338 98 -751 286
-1091 495 l-69 42 -31 -24 c-61 -47 -473 -368 -612 -476 -77 -61 -205 -161
-285 -223 -80 -61 -147 -114 -150 -118 -3 -3 -32 -25 -65 -50 -33 -25 -62 -47
-65 -50 -5 -5 -186 -147 -276 -216 -28 -21 -97 -75 -153 -119 l-103 -80 34 -8
c244 -59 396 -133 511 -250 79 -80 91 -96 157 -213 23 -39 67 -162 81 -223 19
-81 23 -107 35 -206 4 -33 8 -791 9 -1685 1 -894 5 -1659 9 -1700 11 -127 21
-204 36 -285 5 -27 12 -62 14 -77 9 -53 47 -183 83 -277 98 -263 252 -497 477
-725 140 -141 247 -233 436 -372 122 -90 472 -328 510 -346 34 -17 638 -419
695 -462 11 -9 63 -48 115 -88 52 -40 100 -77 106 -83 7 -5 31 -26 55 -45 147
-118 348 -317 485 -481 93 -112 209 -281 283 -414 54 -95 48 -95 101 0 68 122
217 340 274 401 6 6 31 36 56 67 46 57 270 282 350 352 61 54 120 102 216 177
85 67 93 72 192 143 66 48 339 231 457 307 671 430 896 596 1135 837 230 231
387 472 488 746 38 101 67 202 78 265 3 14 11 61 19 105 14 82 19 121 31 260
4 44 8 811 9 1705 2 894 5 1650 9 1680 54 468 267 741 671 858 39 12 85 23
103 26 19 2 36 6 38 9 3 3 -312 252 -686 542 -43 33 -105 82 -139 108 -71 55
-558 436 -581 454 -32 26 -257 200 -292 227 -41 30 -30 32 -118 -15 -92 -48
-406 -199 -416 -199 -2 0 -29 -12 -61 -26 -84 -38 -88 -39 -203 -84 -185 -73
-480 -167 -670 -213 -287 -69 -321 -76 -317 -63 2 6 92 79 201 162 108 84 199
154 201 156 3 2 -14 4 -38 5 -139 1 -754 19 -779 22 -5 1 -8 6 -8 12 0 6 -6
25 -14 42 -7 18 -23 61 -35 97 -13 36 -25 72 -28 80 -3 8 -7 20 -9 25 -4 15
-103 294 -124 350 -11 28 -27 74 -36 103 -9 28 -20 52 -23 52 -4 0 -12 -15
-18 -32z"/>
</g>
</svg>
